<svg xmlns="http://www.w3.org/2000/svg" viewBox="0 0 972.39 319.8"><defs><linearGradient id="b" x1="0" x2="183.23" y1="155.82" y2="155.82" gradientUnits="userSpaceOnUse"><stop offset="0" stop-color="#f7ab14"/><stop offset=".17" stop-color="#f07930"/><stop offset=".33" stop-color="#eb4f48"/><stop offset=".48" stop-color="#e83159"/><stop offset=".61" stop-color="#e51f64"/><stop offset=".7" stop-color="#e51968"/></linearGradient><linearGradient id="a" x1="144.62" x2="317.38" y1="211.53" y2="38.77" gradientUnits="userSpaceOnUse"><stop offset="0" stop-color="#a31256"/><stop offset=".22" stop-color="#9c1458"/><stop offset=".5" stop-color="#8b1a60"/><stop offset=".82" stop-color="#6f256d"/><stop offset="1" stop-color="#5c2d77"/></linearGradient><linearGradient id="c" x1="80.05" x2="95.31" y1="128.79" y2="128.79" href="#a"/><linearGradient id="d" x1="80.05" x2="131.19" y1="149.8" y2="149.8" href="#a"/><linearGradient id="e" x1="823.69" x2="940.37" y1="-499.57" y2="-499.57" gradientTransform="matrix(-2.48782 2.09123 -1.04883 -1.24774 2488.55 -2314.23)" href="#b"/></defs><path fill="url(#b)" d="M0 67.2v209.38l62.64-.11v32.62l56.04-32.67 64.55.01V2.54z"/><path fill="url(#a)" d="M207.06 2.57v271.41l21.62.01V10.2z"/><path fill="#fff" d="M170.92 133.18c0 43.16-34.99 85.66-78.15 94.94s-78.15-18.19-78.15-61.35S49.61 81.1 92.77 71.83c43.16-9.28 78.15 18.2 78.15 61.36z"/><path fill="#e5e5e6" d="M122.92 146.09c0 19.47-15.78 38.64-35.25 42.82-19.46 4.18-35.24-8.21-35.24-27.67s15.78-38.64 35.24-42.82c19.47-4.18 35.25 8.21 35.25 27.67"/><path fill="url(#c)" d="M95.31 152.01c0 4.22-3.42 8.36-7.63 9.27-4.21.9-7.63-1.77-7.63-5.99v-49.74c0-4.22 3.41-8.36 7.63-9.27 4.21-.91 7.63 1.78 7.63 5.99z"/><path fill="url(#d)" d="M87.67 161.28c-4.22.91-7.63-1.77-7.63-5.99 0-4.21 3.41-8.36 7.63-9.27l35.89-7.71c4.22-.9 7.63 1.78 7.63 5.99 0 4.22-3.41 8.36-7.63 9.27z"/><path fill="#29a9e1" d="M108.04 149.46c0 10.82-8.76 21.47-19.58 23.8-10.82 2.32-19.59-4.56-19.59-15.38s8.77-21.46 19.59-23.79c10.82-2.32 19.58 4.56 19.58 15.38Z"/><path fill="#363e51" d="M360.52 185.96c.32.09.38.25.29.5-2.15 4.08-23 41.93-26.39 48.14-.41.72-.66.95-1.65 1.08-2.08.15-5.07.1-7.29.07-2.73-.05-2.53-.63-2.81-2.96l-.44-3.73c-1.22-8.79-2.41-23.2-3.84-30.66-4.03 6.8-15.94 29.36-19.97 36.42-.49.8-1.47.87-2.36.92a132 132 0 0 1-6.89.05c-1.34-.11-1.83-.08-2.04-1.14l-5.88-47.66c-.11-.81.45-1.03 1.15-1.09 1.37-.14 4.92-.12 6.8-.05.77.06 1.78.08 2.01.95.61 4.7 2.19 24.39 2.93 31.8.49 3.94.4 8.29 1.03 7.25l20.36-38.77c.75-1.46 1.94-1.17 3.71-1.27l5.46.03c1.02.1 1.67.02 2.11.74.65 3.3 1.15 11.91 2.13 21.14.66 5.37 1.15 14.9 1.86 18.15.04 0 .08-.04.13-.11 1.22-2.21 17.04-33.94 19.62-38.91.56-.88 1.05-.89 2.39-1 2.2-.02 5.86-.14 7.48.08l.12.03zm11.44 47.52c-17.95-8.54-12.9-34.5 2.59-42.96 6-3.63 12.45-5.28 19.87-5.35 15.55-.55 27.94 10.7 24.36 26.79-3.63 20.03-29.13 29.44-46.55 21.66l-.27-.13zm26.63-7.73c14.03-7.57 16.32-32.42-3.71-33.06-11.18-1.02-22.6 6.72-24.29 18.14-3.25 17.19 15.23 21.94 27.74 15.07zm68.43-36.23c7.91 6.1 3.18 18.17-4.3 22.39-1.76 1.14-4.03 1.92-5.94 2.66-.77.33-1.25.66-1.36 1.16-.11.47.13 1.06.35 1.56l7.24 14.85c1 2.14 1.78 3.18.82 3.45-1.81.36-5.75.11-8.19.15-.93-.05-1.98-.07-2.54-.9-.62-.93-1.49-3.09-2.75-5.76l-4.53-9.84c-1.04-2.24-1.27-3.17-3.08-3.35-1.84.03-5.3-.8-6.08 1.33-.76 2.93-2.78 13.65-3.56 16.91-.64 2.47-3.69 1.39-5.8 1.64-1.09 0-2.05 0-2.68-.05-.94-.07-1.19-.24-1.16-.69.16-1.11.84-4.14 1.66-8.21l8.6-40.76c4.84-.61 13.6-.04 17.74-.23 5.04-.06 11.58.51 15.35 3.52l.22.18zm-5.61 8.95c-.22-5.88-7.05-6.47-11.73-6.25-2.49.05-5.48-.1-7.54.07-.36.08-.49.27-.59.61-.37 1.59-1.66 8.03-2.54 12.27-.36 1.87-.72 3.24-.7 3.73.03.34.34.4 1.13.41 8.63.03 21.36 1.55 21.98-10.56v-.29zm38.4 12.45c1.95 3.09 15.73 19.01 19.28 23.53.64.72.77 1.24-.42 1.26-1.61.09-6.46.06-8.8.03-1-.04-2.02-.06-2.76-.77-4.67-5.45-14.51-18.09-16.82-20.73-.51-.62-.77-.04-.89.53-.65 2.88-3.02 14.62-3.91 18.78-.22 1.1-.59 1.94-1.85 2.08-1.59.21-5.47.15-6.96.05-1.13-.12-1.12-.46-.94-1.33l9.82-47.41c.21-.85.54-.95 1.64-1.06 1.48-.08 4.91-.12 6.5.03.86.06 1.49.48 1.31 1.43-.49 2.85-2.52 12.28-3.53 17.31-.57 2.87-.92 3.92-.16 3.36 3.13-2.34 22.3-18.85 26.59-21.86 2.01-.61 4.83-.23 7.18-.33 1.98.1 3.29-.22 4.39.25-1.44 1.84-8.67 7.13-15.62 13.02-4.23 3.68-11.39 8.85-14.07 11.76v.07zm75.95-24.34c-.23 1.85-.41 5.67-3.1 5.6-3.57.24-10.24-.29-13.25.25-.51.28-.47.73-.63 1.34l-1.9 9.16-6.66 31.99c-.29.74-.77.7-1.71.8-1.32.06-3.97.04-5.66.03-1.37-.12-2.13.14-2.19-.83.54-2.93 3.74-18.08 6.08-29.45l2.31-11.15c.32-1.73.72-2.08-1.38-2.1-1.13-.02-3.05 0-5.14-.01-2.98-.05-6.09.13-7.35-.15-.37-.1-.63-.27-.78-.61-.4-1 .28-3.57.7-4.72.35-.86.83-.92 1.62-.92h38.12c.47.01.86.05.92.61v.15zm18.51-.63c.28.09.35.23.33.48-.19 1.14-1 4.88-2.02 9.85l-8.09 38.87c-.26.53-.62.49-1.35.57-1.57.04-5.64.13-7.61-.06-.96-.16-.48-.77-.27-2.12l9.94-47.35c.18-.2.53-.29 1.2-.33 1.86-.01 5.76-.15 7.75.06zm72.95.06c.35.12.45.31.44.62-.83 4.45-8.5 41.53-9.79 47.84-.22.92-.54 1.1-1.74 1.22-1.72.09-5.61.16-6.9-.1-.52-.1-.88-.39-.84-.96.64-3.99 4.17-20.39 5.41-26.74.66-3.66 1.5-6.25.96-5.81l-21.23 29.38c-1.17 1.37-2.18 3.78-3.71 4.07-1.49.21-4.56.59-5.96-.48-2.27-5.07-9.79-31.33-10.65-32.92-.08-.11-.15-.07-.22.14-.1.28-.22.87-.39 1.71l-4.3 21.03-1.88 9.14c-.15.97-.84 1.45-1.79 1.51-1.65.16-5.31.14-6.73 0-.85-.05-1.29-.46-1-1.35l9.95-47.89c.74-.83 2.97-.55 4.41-.62 1.55 0 3.17-.01 4.18.06 1.14.08 1.75.3 2.07 1.3l9.89 31.36c1.16 3.14 1.61 6.56 2.35 5.93 1.88-2.44 23.63-32.75 27.22-37.65.64-.8 1.11-.86 2.34-.96 2.14-.02 6.06-.18 7.77.1l.12.04zm21.15 6.62c-1.28 2.9-2.14 9.74-2.89 12.85-.06.43-.11.89.03 1.23.28.73 1.64.57 4.05.59h9.17c2.25.11 6.05-.46 5.96 1.06.11 1.9-.27 5.2-2.72 5.23-2.71.08-9.43.02-13.67.04-1.89.02-3.14-.06-3.82.23-1.58 1.02-1.57 5.31-2.31 7.64-.44 2.32-1.09 4.75-1.3 6.72-.1 1.13.88 1.11 1.76 1.14l18.92.07c.43.07.76.15.99.49.52.84-.13 3.57-.68 4.85-.22.46-.55.8-1.04.91-8.41.22-21.89.06-30.26.07-.7-.05-.83-.18-.76-.75l8.66-42.03c.59-2.76.9-4.62 1.4-6.62.19-.53.59-.54 1.15-.57l29.2-.01c.54 0 1.12 0 1.4.43.24.38.18 1.17.02 2.12-.34 1.53-.56 3.65-2.41 3.79-3.49.14-15.92 0-19.4.08-.52.02-.99.06-1.35.37l-.09.09zM306.03 43.01c.41.13.46.38.42.76l-16.65 93.65c-.6 1.15-1.36.68-3.35.85-4.52-.03-13.84.06-18.11-.02-2.6-.06-1.79-.64-1.53-2.8l16.28-91.59c.46-1.33 1.29-.85 3.4-1.02 5.26.12 14.95-.24 19.45.15l.09.03zm84.86 95.08c-4.93.49-11.99.05-17.56.19-2.09-.01-3.44-.04-4.24-.3-.88-.28-1.23-.9-1.64-1.69-4.34-8.54-25.1-52.76-27.41-56.23-.75 1.44-1.2 6.46-2.67 13.89l-7.48 41.97c-.14 1.8-1.4 2.34-3.08 2.3-4.41.13-12.93.02-17.17.04-1.06-.06-2.89.2-3.19-.84 1.7-11.17 14.74-83.4 16.39-93.18.42-1.56 1.12-1.22 3.4-1.39l15.82-.01c1.88.09 4.26-.29 5.09 1.7l21.13 43.9 6.12 12.61c.18.27.32.42.47.07l10.07-56.28c.2-.83.39-1.41 1.22-1.71 4.91-.73 13.47-.12 18.95-.29 2.36.04 3.12.17 3.19.84-2.47 11.9-14.06 86.67-17.31 94.37l-.11.03zm102.78-94.36c-.02 2.54-1.16 7.83-1.65 11.01-.61 3.01-.54 6.35-4.07 6.38-5.06.17-15 .01-19.46.08-1.01.05-2.1-.04-2.9.42-3.37 12.62-11.43 64.07-13.7 74.71-.45 2.75-2.42 1.68-5.93 1.95h-14.21c-1.84-.14-3.15.25-3.41-1 1-6.91 5.65-31.78 9.2-52.17l3.7-20.81c.4-2.55.96-3.05-2.41-3.08-3.8-.05-13.78.01-18.5-.04-1.92.04-3.83-.3-3.45-2.69.37-3.5 1.57-9.22 2.14-12.44.56-2.17.46-2.99 2.1-3.19l70.82-.02c.75.02 1.54-.07 1.7.78l.02.12zm31.77 18.38c-1.78 3.93-2.28 11.4-3.12 15.47-.08.97-.28 2.15.41 2.86.91.86 3.79.54 7.96.61l18.99.04c2.29-.05 2.99 1.11 2.6 3.38-.28 2.26-.91 5.41-1.33 7.81-.69 3.71-.88 6.67-5.21 6.3l-20.17.01c-3.15.03-5.16-.13-6.2.57-.86.55-1.22 1.78-1.63 3.86l-1.89 10.45c-.38 3.13-2.08 6.81 2.34 6.46l23.49.01c4.17.27 6.84-.77 7.74 1.23.28 3.62-1.32 8.85-1.89 12.98-.39 1.48-.4 3.61-2.1 4.03-9.67.27-25.21.04-36.55.11-8.59-.1-14.46.2-20.21-.12-.34-.1-.45-.29-.45-.66l16.35-92.38c.25-1.92.53-2.37 2.36-2.29h54c2.81-.09 2.54 1.07 2.01 4.45l-1.31 7.41c-.74 2.85-.34 5.87-3.31 6.38-6.92.3-24.9-.02-30.69.16-.83.05-1.57.18-2.11.76l-.1.12zm51.16 2.94c10.76-14.87 28.98-23.82 47.38-23.3 11.12.07 22.62 3.47 29.69 11.13 3.14 2.57 11.52 17.47 5.89 19.62-5.02 1-11.74.24-17 .45-4.27.24-6.8-1.61-9.8-4.78-2.38-2.27-5.58-3.79-9.08-4.36-9.23-1.6-19.06 1.77-25.35 8.67-8.04 8.71-11.52 23.22-7.47 34.14 3.43 9.07 13.83 12.29 22.84 11.53 8.87-.24 20.01-7.33 22.37-15.14 0-1.32-1.97-1.58-5.42-1.54-5.51 0-13.83.02-18.1-.02-1.21-.08-2.63.04-3.36-.96-.97-2.48.32-5.7.58-8.48.76-3.25.39-8.1 4.55-7.58l46.07.14c1.93.68.76 3.03.45 5.97l-1.95 10.88c-.96 5.5-2.91 8.85-5.92 13.06-11.48 16.06-31.1 25.93-50.82 24.35-40.46-2.54-45.96-45.37-25.75-73.53l.19-.25zm166.74-15.07c13.61 12.24 6.86 35.44-6.88 44.68-2.69 2-6.25 3.49-9.16 4.91-1.26.68-1.97 1.34-2.01 2.34.21 2.46 1.75 4.9 3.29 9.07l10.05 24.72c.34.97.92 2.16-.47 2.41-2.45.29-5.21.12-8.3.17-3.9 0-9.34 0-12.82-.01-2.68.08-3.98-.47-4.72-2.92l-10.74-28.67c-.23-.6-.43-1.15-.68-1.7-1.51-3.74-6.79-3.15-7.15.75-1.59 7.45-3.89 24.5-5.91 31.48-1.07 1.32-2.34.94-4.43 1.08H675c-3.04 0-5.81.01-7.49-.02-2.57-.05-2.77-.3-2.58-1.47l16.36-92.47c.17-.85.26-1.3 1.3-1.41 8.94-.21 26.09-.02 33.9-.08 8.71-.12 19.68.72 26.64 6.96l.22.19zm-16.52 20.75c-.65-9.13-9.76-9.02-17.64-8.86-2.23.1-5.23-.28-7.19.38-.81.38-1.04 1.21-1.32 2.72l-2.57 14.29c-.29 3.32-2.23 6.34 1.05 6.48 12.19.32 27 1.7 27.68-14.7v-.3zm88.25 51.54c-.61-.75-1.48-.77-2.47-.82-5.71-.03-23.72-.03-29.75 0-1.31.03-2.5.15-3.37 1.16-2.49 3.29-5.06 9.66-7.2 13.05-1.01 1.98-2.94 2.69-5.1 2.61l-17.02.02c-.96 0-1.99.01-2.81-.19-.37-.12-.39-.33-.26-.68l50.93-94.09c.37-.32.96-.43 2.26-.47l21.29-.02c4.54-.12 3.55.73 4.21 3.38l16.66 89.67c.1.92.53 1.56-.09 2.09-.93.37-2.14.27-3.27.31-4.35-.02-13.71.07-17.64-.05-3.29.08-3.68-2.67-4.15-5.57-.63-3-.9-7.94-2.13-10.27l-.09-.12zm-2.59-18.64c.71-1.58-.43-4.06-.83-8.01l-4.13-25.86c-.23-1.2-.32-1.53-.88-.57l-17.29 33.18c-1.36 2.35 2.08 1.4 4.58 1.61 4.57-.19 14.62.43 18.47-.3l.08-.06z"/><path fill="url(#e)" d="M927.01 30.45c38.37 45.65-4.06 144.47-94.78 220.72-39.37 33.09-81.35 56.48-119.42 68.64 45.31-7.27 100.15-33.76 150.68-76.23 90.71-76.25 133.14-175.07 94.77-220.71-21.72-25.84-64.67-29.09-114.3-13.23 36.04-5.78 66.06.59 83.05 20.81"/></svg>